<svg width="16" height="16" viewBox="0 0 16 16" fill="none" xmlns="http://www.w3.org/2000/svg">
  <g opacity="0.3">
    <circle cx="8" cy="8" r="8" fill="black"/>
  </g>
  <path
    d="M7.04 10.372V8.464C7.688 8.432 8.184 8.296 8.528 8.056C8.88 7.808 9.056 7.444 9.056 6.964V6.796C9.056 6.428 8.944 6.144 8.72 5.944C8.496 5.736 8.196 5.632 7.82 5.632C7.42 5.632 7.1 5.748 6.86 5.98C6.62 6.212 6.456 6.508 6.368 6.868L5.228 6.412C5.3 6.164 5.404 5.924 5.54 5.692C5.684 5.46 5.864 5.256 6.08 5.08C6.296 4.896 6.552 4.752 6.848 4.648C7.144 4.536 7.484 4.48 7.868 4.48C8.26 4.48 8.616 4.536 8.936 4.648C9.256 4.76 9.528 4.92 9.752 5.128C9.976 5.328 10.148 5.576 10.268 5.872C10.388 6.16 10.448 6.48 10.448 6.832C10.448 7.192 10.384 7.516 10.256 7.804C10.136 8.084 9.972 8.324 9.764 8.524C9.564 8.724 9.336 8.888 9.08 9.016C8.824 9.136 8.56 9.22 8.288 9.268V10.372H7.04ZM7.676 13.144C7.372 13.144 7.148 13.072 7.004 12.928C6.868 12.776 6.8 12.584 6.8 12.352V12.148C6.8 11.916 6.868 11.728 7.004 11.584C7.148 11.432 7.372 11.356 7.676 11.356C7.98 11.356 8.2 11.432 8.336 11.584C8.48 11.728 8.552 11.916 8.552 12.148V12.352C8.552 12.584 8.48 12.776 8.336 12.928C8.2 13.072 7.98 13.144 7.676 13.144Z"
    fill="white"/>
</svg>
