<svg viewBox="0 0 50 50" xmlns="http://www.w3.org/2000/svg" xml:space="preserve" style="fill-rule:evenodd;clip-rule:evenodd;stroke-linejoin:round;stroke-miterlimit:2"><path d="M1000 2000c554.17 0 1000-445.83 1000-1000C2000 445.83 1554.17 0 1000 0 445.83 0 0 445.83 0 1000c0 554.17 445.83 1000 1000 1000Z" style="fill:#22a079;fill-rule:nonzero" transform="scale(.025)"/><path d="M19.248 6.082v3.988l.005.005C26.53 10.416 32 11.888 32 13.645c0 1.761-5.47 3.228-12.747 3.569V30h-6.484V17.214C5.483 16.869 0 15.401 0 13.64s5.479-3.228 12.769-3.57V6.082H3.8V0h24.417v6.082h-8.969Zm0 10.036v.009c6.425-.294 11.221-1.433 11.221-2.797s-4.792-2.504-11.221-2.798v4.455c-.186.017-1.187.104-3.189.104-1.666 0-2.875-.074-3.295-.104v-4.459c-6.437.289-11.246 1.433-11.246 2.797 0 1.369 4.805 2.508 11.246 2.797v-.004c.416.022 1.591.069 3.266.069 2.095 0 3.036-.056 3.218-.069Z" style="fill:#fff" transform="translate(9 10)"/></svg>