<svg width="50" height="50" viewBox="0 0 50 50" xmlns="http://www.w3.org/2000/svg" style="fill-rule:evenodd;clip-rule:evenodd;stroke-linejoin:round;stroke-miterlimit:2;">
    <g transform="matrix(0.025,0,0,0.025,0,0)">
        <path d="M1000,2000C1554.17,2000 2000,1554.17 2000,1000C2000,445.83 1554.17,0 1000,0C445.83,0 0,445.83 0,1000C0,1554.17 445.83,2000 1000,2000Z" style="fill:white;fill-rule:nonzero;"/>
    </g>
  <g transform="matrix(1,0,0,1,9,10)">
        <path d="M19.248,6.082L19.248,10.07L19.253,10.075C26.53,10.416 32,11.888 32,13.645C32,15.406 26.53,16.873 19.253,17.214L19.253,30L12.769,30L12.769,17.214C5.483,16.869 0,15.401 0,13.64C0,11.879 5.479,10.412 12.769,10.07L12.769,6.082L3.8,6.082L3.8,0L28.217,0L28.217,6.082L19.248,6.082ZM19.248,16.118L19.248,16.127C25.673,15.833 30.469,14.694 30.469,13.33C30.469,11.966 25.677,10.826 19.248,10.532L19.248,14.987C19.062,15.004 18.061,15.091 16.059,15.091C14.393,15.091 13.184,15.017 12.764,14.987L12.764,10.528C6.327,10.817 1.518,11.961 1.518,13.325C1.518,14.694 6.323,15.833 12.764,16.122L12.764,16.118C13.18,16.14 14.355,16.187 16.03,16.187C18.125,16.187 19.066,16.131 19.248,16.118Z" style="fill:rgb(34,160,121);"/>
    </g>
</svg>

